<?xml version="1.0" encoding="UTF-8" standalone="no"?>
<!-- Generator: Adobe Illustrator 19.0.0, SVG Export Plug-In . SVG Version: 6.00 Build 0)  -->

<svg
   xmlns:dc="http://purl.org/dc/elements/1.1/"
   xmlns:cc="http://creativecommons.org/ns#"
   xmlns:rdf="http://www.w3.org/1999/02/22-rdf-syntax-ns#"
   xmlns:svg="http://www.w3.org/2000/svg"
   xmlns="http://www.w3.org/2000/svg"
   xmlns:sodipodi="http://sodipodi.sourceforge.net/DTD/sodipodi-0.dtd"
   xmlns:inkscape="http://www.inkscape.org/namespaces/inkscape"
   version="1.1"
   id="Layer_1"
   x="0px"
   y="0px"
   viewBox="0 0 453.54329 1122.5197"
   xml:space="preserve"
   sodipodi:docname="bulbon.svg"
   inkscape:version="0.92.5 (2060ec1f9f, 2020-04-08)"
   width="120mm"
   height="297mm"><metadata
   id="metadata62"><rdf:RDF><cc:Work
       rdf:about=""><dc:format>image/svg+xml</dc:format><dc:type
         rdf:resource="http://purl.org/dc/dcmitype/StillImage" /><dc:title /></cc:Work></rdf:RDF></metadata><defs
   id="defs60">
	

		
		
	
			
			
			
			
			
		
			
			
			
			
		</defs><sodipodi:namedview
   pagecolor="#ffffff"
   bordercolor="#666666"
   borderopacity="1"
   objecttolerance="10"
   gridtolerance="10"
   guidetolerance="10"
   inkscape:pageopacity="0"
   inkscape:pageshadow="2"
   inkscape:window-width="1364"
   inkscape:window-height="712"
   id="namedview58"
   showgrid="false"
   inkscape:zoom="0.13973684"
   inkscape:cx="422.325"
   inkscape:cy="-539.20891"
   inkscape:window-x="0"
   inkscape:window-y="28"
   inkscape:window-maximized="1"
   inkscape:current-layer="Layer_1"
   units="mm"
   width="209mm" />

<g
   id="g27"
   transform="translate(0,647.51969)">
</g>
<g
   id="g29"
   transform="translate(0,647.51969)">
</g>
<g
   id="g31"
   transform="translate(0,647.51969)">
</g>
<g
   id="g33"
   transform="translate(0,647.51969)">
</g>
<g
   id="g35"
   transform="translate(0,647.51969)">
</g>
<g
   id="g37"
   transform="translate(0,647.51969)">
</g>
<g
   id="g39"
   transform="translate(0,647.51969)">
</g>
<g
   id="g41"
   transform="translate(0,647.51969)">
</g>
<g
   id="g43"
   transform="translate(0,647.51969)">
</g>
<g
   id="g45"
   transform="translate(0,647.51969)">
</g>
<g
   id="g47"
   transform="translate(0,647.51969)">
</g>
<g
   id="g49"
   transform="translate(0,647.51969)">
</g>
<g
   id="g51"
   transform="translate(0,647.51969)">
</g>
<g
   id="g53"
   transform="translate(0,647.51969)">
</g>
<g
   id="g55"
   transform="translate(0,647.51969)">
</g>
<g
   id="g859"><rect
     transform="scale(1,-1)"
     x="216.35548"
     y="-729.98956"
     style="fill:#546a79"
     width="70"
     height="50"
     id="rect2" /><polygon
     transform="matrix(1,0,0,-1,13.855481,1124.9896)"
     style="fill:#afb6bb"
     points="292.5,395 272.5,395 202.5,395 182.5,395 182.5,355 292.5,355 "
     id="polygon4" /><rect
     transform="scale(1,-1)"
     x="196.35548"
     y="-804.98956"
     style="fill:#e7eced"
     width="110"
     height="35"
     id="rect6" /><path
     style="fill:#ffcc00;fill-opacity:1"
     d="m 391.35548,974.98955 c 0,-57.798 -35,-107.402 -85,-128.799 v -41.201 h -110 v 41.201 c -50,21.396 -85,71.001 -85,128.799 0,77.30005 62.695,140.00005 140,140.00005 77.305,0 140,-62.7 140,-140.00005 z"
     id="path8"
     inkscape:connector-curvature="0" /><path
     style="fill:#ffd429;fill-opacity:1"
     d="m 346.35548,974.98955 c 0,-52.466 -42.529,-95 -95,-95 -52.461,0 -95,42.534 -95,95 0,52.46605 42.539,95.00005 95,95.00005 52.471,0 95,-42.534 95,-95.00005 z"
     id="path10"
     inkscape:connector-curvature="0" /><path
     style="fill:#ffd42a"
     d="m 246.35548,1119.9896 c -82.71,0 -149.999999,-67.29 -149.999999,-150.00005 0,-57.925 33.146999,-110.298 84.999999,-135.238 v -109.762 c 0,-5.523 4.477,-10 10,-10 h 10 v -40 c 0,-5.523 4.477,-10 10,-10 h 25 v -20 h 20 v 20 h 25 c 5.522,0 10,4.477 10,10 v 40 h 10 c 5.522,0 10,4.477 10,10 v 109.762 c 51.853,24.939 85,77.313 85,135.238 0,82.71005 -67.29,150.00005 -150,150.00005 z m -45,-330.00005 h 90 v -15 h -90 z m 70,-105 h -50 v 30 h 50 z m 20,50 h -10 -70 -10 v 20 h 90 z m 6.065,115.395 c -3.679,-1.574 -6.065,-5.191 -6.065,-9.193 v -31.202 h -90 v 31.201 c 0,4.002 -2.387,7.619 -6.065,9.193 -47.952,20.52 -78.935,67.468 -78.935,119.606 0,71.68205 58.317,130.00005 130,130.00005 71.683,0 130,-58.318 130,-130.00005 0,-52.138 -30.983,-99.086 -78.935,-119.605 z"
     id="path14"
     inkscape:connector-curvature="0" /><path
     style="fill:#ff9000;fill-opacity:1"
     d="m 281.35548,974.98955 h -56.618 l 45.014,69.56705 -16.791,10.865 -55,-85.00005 c -1.99,-3.076 -2.14,-6.994 -0.389,-10.211 1.751,-3.218 5.121,-5.221 8.784,-5.221 h 59.242 l -33.29,-70.742 18.096,-8.516 40,85 c 1.458,3.098 1.229,6.726 -0.605,9.616 -1.834,2.891 -5.019,4.642 -8.443,4.642 z"
     id="path16"
     inkscape:connector-curvature="0" /><rect
     transform="scale(1,-1)"
     x="146.35547"
     y="-974.98956"
     style="fill:#231f20"
     width="20"
     height="20"
     id="rect18" /><rect
     transform="scale(1,-1)"
     x="326.35547"
     y="-974.98956"
     style="fill:#231f20"
     width="20"
     height="20"
     id="rect20" /><rect
     y="20.710608"
     x="237.58078"
     height="624.27893"
     width="17.097466"
     id="rect856"
     style="opacity:1;fill:#241f1c;fill-opacity:1;fill-rule:evenodd;stroke:#241f1c;stroke-width:10.64489555;stroke-linecap:round;stroke-linejoin:round;stroke-miterlimit:4;stroke-dasharray:none;stroke-opacity:1" /></g></svg>