<?xml version="1.0" encoding="UTF-8" standalone="no"?>
<!-- Generator: Adobe Illustrator 18.1.1, SVG Export Plug-In . SVG Version: 6.00 Build 0)  -->

<svg
   xmlns:dc="http://purl.org/dc/elements/1.1/"
   xmlns:cc="http://creativecommons.org/ns#"
   xmlns:rdf="http://www.w3.org/1999/02/22-rdf-syntax-ns#"
   xmlns:svg="http://www.w3.org/2000/svg"
   xmlns="http://www.w3.org/2000/svg"
   xmlns:sodipodi="http://sodipodi.sourceforge.net/DTD/sodipodi-0.dtd"
   xmlns:inkscape="http://www.inkscape.org/namespaces/inkscape"
   version="1.1"
   id="Capa_1"
   x="0px"
   y="0px"
   viewBox="0 0 21.977 21.977"
   style="enable-background:new 0 0 21.977 21.977;"
   xml:space="preserve"
   sodipodi:docname="moon.svg"
   inkscape:version="0.92.5 (2060ec1f9f, 2020-04-08)"><metadata
   id="metadata49"><rdf:RDF><cc:Work
       rdf:about=""><dc:format>image/svg+xml</dc:format><dc:type
         rdf:resource="http://purl.org/dc/dcmitype/StillImage" /></cc:Work></rdf:RDF></metadata><defs
   id="defs47" /><sodipodi:namedview
   pagecolor="#ffffff"
   bordercolor="#666666"
   borderopacity="1"
   objecttolerance="10"
   gridtolerance="10"
   guidetolerance="10"
   inkscape:pageopacity="0"
   inkscape:pageshadow="2"
   inkscape:window-width="1436"
   inkscape:window-height="835"
   id="namedview45"
   showgrid="false"
   inkscape:zoom="10.7385"
   inkscape:cx="-7.3101459"
   inkscape:cy="10.9885"
   inkscape:window-x="0"
   inkscape:window-y="30"
   inkscape:window-maximized="1"
   inkscape:current-layer="Capa_1" />
<g
   id="g12"
   style="stroke:#ffffff;stroke-width:0.60000002;stroke-miterlimit:4;stroke-dasharray:none"
   transform="matrix(0.95597975,0,0,0.95597975,0.26246027,0.47148869)">
	<g
   id="g10"
   style="stroke:#ffffff;stroke-width:0.60000002;stroke-miterlimit:4;stroke-dasharray:none">
		<polygon
   style="fill:#030104;stroke:#ffffff;stroke-width:0.60000002;stroke-miterlimit:4;stroke-dasharray:none"
   points="13.977,4.988 11.691,4.226 10.477,0.988 9.263,4.226 6.977,4.988 9.263,5.75 10.477,8.988 11.69,5.75 "
   id="polygon2" />
		<path
   style="fill:#030104;stroke:#ffffff;stroke-width:0.60000002;stroke-miterlimit:4;stroke-dasharray:none"
   d="M 6,11.488 C 6,10.582 6.269,9.738 6.729,9.032 6.49,9.003 6.247,8.988 6,8.988 5.451,8.988 4.92,9.061 4.415,9.2 1.87,9.895 0,12.222 0,14.988 c 0,3.312 2.687,6 6,6 3.057,0 5.579,-2.285 5.953,-5.239 -0.456,0.155 -0.944,0.239 -1.453,0.239 -2.484,0 -4.5,-2.016 -4.5,-4.5 z"
   id="path4"
   inkscape:connector-curvature="0" />
		<polygon
   style="fill:#030104;stroke:#ffffff;stroke-width:0.60000002;stroke-miterlimit:4;stroke-dasharray:none"
   points="10.977,12.988 13.263,13.75 14.477,16.988 15.691,13.75 17.977,12.988 15.691,12.226 14.477,8.988 13.263,12.226 "
   id="polygon6" />
		<polygon
   style="fill:#030104;stroke:#ffffff;stroke-width:0.60000002;stroke-miterlimit:4;stroke-dasharray:none"
   points="18.61,6.417 16.977,6.988 18.61,7.559 19.477,9.988 20.344,7.559 21.977,6.988 20.344,6.417 19.477,3.988 "
   id="polygon8" />
	</g>
</g>
<g
   id="g14">
</g>
<g
   id="g16">
</g>
<g
   id="g18">
</g>
<g
   id="g20">
</g>
<g
   id="g22">
</g>
<g
   id="g24">
</g>
<g
   id="g26">
</g>
<g
   id="g28">
</g>
<g
   id="g30">
</g>
<g
   id="g32">
</g>
<g
   id="g34">
</g>
<g
   id="g36">
</g>
<g
   id="g38">
</g>
<g
   id="g40">
</g>
<g
   id="g42">
</g>
</svg>