<?xml version="1.0" encoding="UTF-8" standalone="no"?>
<svg
   xmlns:dc="http://purl.org/dc/elements/1.1/"
   xmlns:cc="http://creativecommons.org/ns#"
   xmlns:rdf="http://www.w3.org/1999/02/22-rdf-syntax-ns#"
   xmlns:svg="http://www.w3.org/2000/svg"
   xmlns="http://www.w3.org/2000/svg"
   xmlns:sodipodi="http://sodipodi.sourceforge.net/DTD/sodipodi-0.dtd"
   xmlns:inkscape="http://www.inkscape.org/namespaces/inkscape"
   viewBox="0 0 64 64"
   version="1.1"
   id="svg23"
   sodipodi:docname="sun.svg"
   inkscape:version="0.92.5 (2060ec1f9f, 2020-04-08)">
  <metadata
     id="metadata29">
    <rdf:RDF>
      <cc:Work
         rdf:about="">
        <dc:format>image/svg+xml</dc:format>
        <dc:type
           rdf:resource="http://purl.org/dc/dcmitype/StillImage" />
      </cc:Work>
    </rdf:RDF>
  </metadata>
  <defs
     id="defs27" />
  <sodipodi:namedview
     pagecolor="#ffffff"
     bordercolor="#666666"
     borderopacity="1"
     objecttolerance="10"
     gridtolerance="10"
     guidetolerance="10"
     inkscape:pageopacity="0"
     inkscape:pageshadow="2"
     inkscape:window-width="1436"
     inkscape:window-height="835"
     id="namedview25"
     showgrid="false"
     inkscape:zoom="3.6875"
     inkscape:cx="32"
     inkscape:cy="32"
     inkscape:window-x="0"
     inkscape:window-y="30"
     inkscape:window-maximized="1"
     inkscape:current-layer="svg23" />
  <title
     id="title2" />
  <g
     id="Sun"
     style="fill:#ffda00;fill-opacity:1;stroke:#ffd500;stroke-opacity:0.94262296">
    <circle
       cx="32"
       cy="32"
       r="15"
       style="fill:#ffda00;fill-opacity:1;stroke:#ffd500;stroke-opacity:0.94262296"
       id="circle4" />
    <path
       d="M32,13a1,1,0,0,1-1-1V3a1,1,0,0,1,2,0v9A1,1,0,0,1,32,13Z"
       style="fill:#ffda00;fill-opacity:1;stroke:#ffd500;stroke-opacity:0.94262296"
       id="path6" />
    <path
       d="M17.8574,18.8579a.9964.9964,0,0,1-.707-.293l-4.2422-4.2426a1,1,0,1,1,1.4141-1.4141l4.2422,4.2427a1,1,0,0,1-.7071,1.707Z"
       style="fill:#ffda00;fill-opacity:1;stroke:#ffd500;stroke-opacity:0.94262296"
       id="path8" />
    <path
       d="M12,33H3a1,1,0,0,1,0-2h9a1,1,0,0,1,0,2Z"
       style="fill:#ffda00;fill-opacity:1;stroke:#ffd500;stroke-opacity:0.94262296"
       id="path10" />
    <path
       d="M13.6152,51.3848a1,1,0,0,1-.707-1.7071L17.15,45.4351a1,1,0,1,1,1.4141,1.414l-4.2422,4.2427A.9969.9969,0,0,1,13.6152,51.3848Z"
       style="fill:#ffda00;fill-opacity:1;stroke:#ffd500;stroke-opacity:0.94262296"
       id="path12" />
    <path
       d="M32,62a1,1,0,0,1-1-1V52a1,1,0,0,1,2,0v9A1,1,0,0,1,32,62Z"
       style="fill:#ffda00;fill-opacity:1;stroke:#ffd500;stroke-opacity:0.94262296"
       id="path14" />
    <path
       d="M50.3848,51.3848a.9969.9969,0,0,1-.7071-.293l-4.2422-4.2427a1,1,0,1,1,1.4141-1.414l4.2422,4.2426a1,1,0,0,1-.707,1.7071Z"
       style="fill:#ffda00;fill-opacity:1;stroke:#ffd500;stroke-opacity:0.94262296"
       id="path16" />
    <path
       d="M61,33H52a1,1,0,0,1,0-2h9a1,1,0,0,1,0,2Z"
       style="fill:#ffda00;fill-opacity:1;stroke:#ffd500;stroke-opacity:0.94262296"
       id="path18" />
    <path
       d="M46.1426,18.8579a1,1,0,0,1-.7071-1.707l4.2422-4.2427a1,1,0,0,1,1.4141,1.4141L46.85,18.5649A.9964.9964,0,0,1,46.1426,18.8579Z"
       style="fill:#ffda00;fill-opacity:1;stroke:#ffd500;stroke-opacity:0.94262296"
       id="path20" />
  </g>
</svg>
